# xmcd
#
# Track frame offsets:
#	150
#	15543
#	35695
#	52524
#	65392
#	82921
#	99612
#	115313
#	133780
#	148970
#	165365
#	187367
#	214866
#
# Disc length: 2904 seconds
#
# Revision: 1
# Processed by: cddbd v1.5.2PL0 Copyright (c) Steve Scherf et al.
# Submitted via: audiograbber 1.83.01
#
DISCID=b50b560d
DTITLE=Rufus Perryman - The Barrel-House Blues Of Speckled Red
DYEAR=1961
DGENRE=Blues
TTITLE0=Ain't Nobody's Biz-ness If I Do
TTITLE1=Uncle Sam's Blues
TTITLE2=Cow Cow Blues
TTITLE3=If I Could Be With You
TTITLE4=It Feels So Good
TTITLE5=Why Don't You Practice What You Preach ?
TTITLE6=Pinetop's Boogie Woogie
TTITLE7=I've Got A Feeling That I'm Failing
TTITLE8=How Long Blues
TTITLE9=Baby Won't You Please Come Home ?
TTITLE10=If I Had A Million Dollars
TTITLE11=You Ain't No Good
TTITLE12=Daten-CD
EXTD=
EXTT0=
EXTT1=
EXTT2=
EXTT3=
EXTT4=
EXTT5=
EXTT6=
EXTT7=
EXTT8=
EXTT9=
EXTT10=
EXTT11=
EXTT12=
PLAYORDER=
